<?xml version="1.0" encoding="UTF-8"?>
<svg id="Layer_1" xmlns="http://www.w3.org/2000/svg" version="1.1" viewBox="0 0 200 200">
  <!-- Generator: Adobe Illustrator 29.5.1, SVG Export Plug-In . SVG Version: 2.1.0 Build 141)  -->
  <defs>
    <style>
      .st0 {
        fill: #231f20;
      }

      .st0, .st1 {
        font-family: Algerian, Algerian;
        font-size: 12px;
      }

      .st2 {
        fill: none;
        stroke: #4abaeb;
      }

      .st2, .st3 {
        stroke-miterlimit: 10;
      }

      .st3 {
        fill: #10182a;
        stroke: #194b8d;
      }

      .st1 {
        fill: #fff;
      }
    </style>
  </defs>
  <rect class="st3" width="200" height="228.96"/>
  <path class="st2" d="M98.3,67.75v-24.07l-4.44,5.6c-4.03-4.31-8.65-6.47-13.87-6.47-5.52,0-10.5,2.46-14.94,7.38h-8.03l3.2,6.87c-2.37,4.47-3.55,9.33-3.55,14.57,0,6.83,2.05,12.78,6.17,17.84.29.36.6.72.92,1.08,3.03,3.39,6.43,5.7,10.2,6.91,1.96.64,4.03.98,6.19,1.02.21,1.6.43,3.31.65,5.14h11.25l-3.31-6.69c1.15-.77,2.21-1.68,3.18-2.75,3.48-3.82,5.23-8.85,5.23-15.07,0-2.7-.61-4.81-1.81-6.28.03.29.05.53.05.72.14,4.28-1.19,7.91-3.97,10.87-1.37,1.45-2.89,2.54-4.59,3.27-.04-.2-.09-.4-.13-.59-.28-1.24-.57-2.29-.86-3.15-.84-2.44-2.04-4.31-3.59-5.61,4.59-1.8,6.89-6.1,6.89-12.88,0-3.53-.59-6.62-1.74-9.3-.61-1.4-1.32-2.54-2.13-3.42,5.65,1.38,10,6.39,13.03,15.01ZM71.03,72.54v-12.33h5.22c1.66,0,2.78.44,3.35,1.31.58.88.86,2.58.86,5.11,0,3.89-.87,5.83-2.62,5.83l-1.62.08h-5.19ZM76.13,83.39c-.07-.09-.14-.18-.2-.28h1.26c1.74,0,2.85,1.09,3.33,3.27,0,.02.01.04.01.06-1.84-.63-3.31-1.65-4.4-3.05Z"/>
  <text class="st1" transform="translate(58.41 121.11) rotate(-1.6)"><tspan x="0" y="0">Prime Stack</tspan></text>
  <text/>
  <text class="st0" transform="translate(56.67 112.87)"><tspan x="0" y="0">RAJESH </tspan><tspan x="0" y="14.4" xml:space="preserve">  CHAULAGAIN</tspan></text>
  <text/>
</svg>